<?xml version="1.0" encoding="iso-8859-1"?>
<!-- Generator: Adobe Illustrator 16.0.0, SVG Export Plug-In . SVG Version: 6.00 Build 0)  -->
<!DOCTYPE svg PUBLIC "-//W3C//DTD SVG 1.1//EN" "http://www.w3.org/Graphics/SVG/1.1/DTD/svg11.dtd">
<svg version="1.1" id="&#x5716;&#x5C64;_1" xmlns="http://www.w3.org/2000/svg" xmlns:xlink="http://www.w3.org/1999/xlink" x="0px"
	 y="0px" width="128px" height="128px" viewBox="0 0 128 128" style="enable-background:new 0 0 128 128;" xml:space="preserve">
<g id="eye-l">
	<g>
		<path d="M45.667,37.918c-0.233-0.37-0.332-0.759-0.266-1.185c0.034-0.223,0.085-0.292,0.217-0.508
			c-0.004,0.006,0.22-0.225,0.214-0.221c0.048-0.037,0.379-0.215,0.082-0.061c0.074-0.039,0.43-0.15,0.059-0.034
			c0.367-0.115-0.321,0.03,0.056-0.014c0.365-0.042-0.283-0.025,0.078,0.01c-0.281-0.027,0.042,0.027,0.099,0.047
			c-0.209-0.073,0.099,0.083,0.119,0.098c0.02,0.013,0.238,0.276,0.297,0.398c0.257,0.538,0.302,1.149,0.183,1.725
			c-0.045,0.218-0.158,0.355-0.241,0.445c0.191-0.207-0.236,0.139,0.089-0.042c-0.342,0.19,0.303-0.073-0.07,0.039
			c-0.378,0.114,0.313-0.03-0.076,0.011c-0.382,0.04,0.279,0.021-0.097-0.004c-0.363-0.025,0.232,0.067-0.108-0.017
			c-0.036-0.008-0.349-0.134-0.112-0.024c-0.28-0.13-0.15-0.051-0.272-0.216c0.113,0.152,0.019,0.018,0.001-0.064
			c0.04,0.192,0.022,0.005,0.044-0.073c0.19-0.695-0.869-0.868-1.306-0.827c-0.663,0.063-1.426,0.411-1.616,1.101
			c-0.541,1.972,2.62,2.181,3.787,1.95c2.255-0.445,3.586-2.598,2.692-4.779c-1.629-3.974-9.005-0.478-6.518,3.47
			C43.627,40.138,46.417,39.108,45.667,37.918L45.667,37.918z"/>
	</g>
</g>
<g id="eye-r">
	<g>
		<path d="M76.737,36.882c-0.195-0.832,0.249-1.485,0.911-1.677c0.828-0.24,1.42,0.612,1.557,1.495
			c0.139,0.893-0.612,1.688-1.152,1.844c-0.215,0.063-0.279,0.059-0.565-0.137c-0.362-0.249-0.405-0.872-0.4-1.256
			c0.019-1.482-2.915-1.015-2.931,0.24c-0.064,5.214,8.044,3.416,7.98-0.996c-0.077-5.324-9.425-3.538-8.297,1.264
			C74.145,38.958,77.046,38.197,76.737,36.882L76.737,36.882z"/>
	</g>
</g>
<g id="mou">
	<g>
		<path d="M28.781,52.077c-2.56,11.306,2.325,23.027,11.387,29.895c8.453,6.407,20.374,6.375,30.107,3.272
			c8.565-2.73,18.678-7.607,23.361-15.649c2.528-4.343,4.041-17.288-1.739-19.513c-0.675-0.259-3.298,0.812-2.369,1.169
			c5.095,1.96,3.084,12.729,2.143,16.641c-2.008,8.345-13.712,13.536-20.957,16.14c-11.05,3.971-22.777,1.934-31.34-6.025
			c-6.785-6.306-9.751-17.48-7.729-26.416C31.81,50.863,28.952,51.319,28.781,52.077L28.781,52.077z"/>
	</g>
</g>
<g id="face">
	<g>
		<path d="M13.467,47.387c0.998-11.635,10.777-20.924,19.884-27.192c10.58-7.281,22.899-10.563,35.646-8.472
			c10.726,1.76,21.072,7.564,28.785,15.109c9.367,9.162,11.238,20.995,9.024,33.524c-2.087,11.817-6.188,22.661-16.909,29.012
			c-10.893,6.453-25.794,7.875-38.061,5.918c-11.67-1.861-23.585-6.444-31.789-15.172c-4.281-4.555-7.314-10.19-8.558-16.31
			c-1.319-6.495,1.577-13.107,1.811-19.584c0.054-1.507-2.888-1.071-2.935,0.226c-0.223,6.193-2.829,12.388-1.981,18.608
			c0.887,6.513,3.873,12.085,7.973,17.146c7.376,9.104,19.029,13.872,30.197,16.319c20.727,4.543,50.116,0.224,59.177-21.836
			c4.766-11.604,7.169-25.963,2.551-37.906c-3.879-10.029-13.98-17.454-23.213-22.103C63.952,4.042,40.018,9.423,23.24,25.492
			c-6.246,5.982-11.943,13.212-12.707,22.121C10.405,49.104,13.356,48.687,13.467,47.387L13.467,47.387z"/>
	</g>
</g>
</svg>
