<?xml version="1.0" encoding="iso-8859-1"?>
<!-- Generator: Adobe Illustrator 16.0.0, SVG Export Plug-In . SVG Version: 6.00 Build 0)  -->
<!DOCTYPE svg PUBLIC "-//W3C//DTD SVG 1.1//EN" "http://www.w3.org/Graphics/SVG/1.1/DTD/svg11.dtd">
<svg version="1.1" xmlns="http://www.w3.org/2000/svg" xmlns:xlink="http://www.w3.org/1999/xlink" x="0px" y="0px" width="224px"
	 height="222.375px" viewBox="0 0 224 222.375" style="enable-background:new 0 0 224 222.375;" xml:space="preserve">
<g id="Layer_1">
	<g>
		<g>
			<g>
				<linearGradient id="SVGID_1_" gradientUnits="userSpaceOnUse" x1="106.6597" y1="115.8345" x2="117.3418" y2="105.1523">
					<stop  offset="0" style="stop-color:#00518F"/>
					<stop  offset="1" style="stop-color:#00447D"/>
				</linearGradient>
				<circle style="fill:url(#SVGID_1_);" cx="112" cy="110.493" r="28.333"/>
				<g>
					<linearGradient id="SVGID_2_" gradientUnits="userSpaceOnUse" x1="-124.3086" y1="-265.999" x2="148.7338" y2="226.5824">
						<stop  offset="0" style="stop-color:#00457E"/>
						<stop  offset="1" style="stop-color:#001A51"/>
					</linearGradient>
					<path style="fill:url(#SVGID_2_);" d="M86.782,123.418l-2.001-20.809c-0.724,2.503-1.113,5.147-1.113,7.884
						C83.668,115.149,84.792,119.543,86.782,123.418z"/>
					<linearGradient id="SVGID_3_" gradientUnits="userSpaceOnUse" x1="45.6284" y1="-9.4238" x2="177.8499" y2="274.1262">
						<stop  offset="0" style="stop-color:#004780"/>
						<stop  offset="1" style="stop-color:#002B66"/>
					</linearGradient>
					<path style="fill:url(#SVGID_3_);" d="M84.781,102.609l2.001,20.809c0.123,0.239,0.25,0.476,0.378,0.71l22.03-41.829
						C97.529,83.447,87.945,91.665,84.781,102.609z"/>
					<linearGradient id="SVGID_4_" gradientUnits="userSpaceOnUse" x1="-9.7402" y1="-20.6445" x2="250.9444" y2="258.9055">
						<stop  offset="0" style="stop-color:#151E63"/>
						<stop  offset="1" style="stop-color:#0062A5"/>
					</linearGradient>
					<path style="fill:url(#SVGID_4_);" d="M87.29,124.361l46.723-31.705C128.817,86.254,120.888,82.16,112,82.16
						c-0.948,0-1.885,0.048-2.81,0.139l-22.03,41.829L87.29,124.361z"/>
					<linearGradient id="SVGID_5_" gradientUnits="userSpaceOnUse" x1="9.2437" y1="42.8291" x2="232.3325" y2="273.8441">
						<stop  offset="0" style="stop-color:#0070BA"/>
						<stop  offset="1" style="stop-color:#004A83"/>
					</linearGradient>
					<path style="fill:url(#SVGID_5_);" d="M87.961,125.49l14.294,11.614C96.296,134.922,91.276,130.793,87.961,125.49z"/>
					<linearGradient id="SVGID_6_" gradientUnits="userSpaceOnUse" x1="61.9336" y1="46.2847" x2="179.5725" y2="196.8555">
						<stop  offset="0" style="stop-color:#14266C"/>
						<stop  offset="1" style="stop-color:#003F74"/>
					</linearGradient>
					<path style="fill:url(#SVGID_6_);" d="M87.29,124.361l46.723-31.705c3.951,4.87,6.32,11.076,6.32,17.836
						c0,15.647-12.686,28.332-28.333,28.332c-3.424,0-6.707-0.607-9.746-1.721L87.961,125.49
						C87.729,125.119,87.505,124.743,87.29,124.361z"/>
				</g>
			</g>
			<g>
				<linearGradient id="SVGID_7_" gradientUnits="userSpaceOnUse" x1="93.9536" y1="58.9663" x2="107.3493" y2="45.5706">
					<stop  offset="0" style="stop-color:#00518F"/>
					<stop  offset="1" style="stop-color:#00447D"/>
				</linearGradient>
				<path style="fill:url(#SVGID_7_);" d="M93.874,81.617c-4.91-17.319-15.011-58.374-3.307-67.361
					c30.929-25.491,95.859,2.385,72.245,20.687c0,0-29.585,22.352-39.882,43.249c-3.431-1.161-7.106-1.79-10.929-1.79
					C105.339,76.401,99.125,78.313,93.874,81.617z"/>
				<g>
					<linearGradient id="SVGID_8_" gradientUnits="userSpaceOnUse" x1="66.2788" y1="-29.5669" x2="147.3232" y2="144.2334">
						<stop  offset="0" style="stop-color:#004780"/>
						<stop  offset="1" style="stop-color:#002B66"/>
					</linearGradient>
					<path style="fill:url(#SVGID_8_);" d="M112.296,76.402l14.664-27.843L85.701,24.386c-2.604,15.932,4.354,43.76,8.173,57.23
						c5.251-3.303,11.465-5.216,18.126-5.216L112.296,76.402z"/>
					<linearGradient id="SVGID_9_" gradientUnits="userSpaceOnUse" x1="64.4121" y1="-49.6221" x2="143.1857" y2="76.4419">
						<stop  offset="0" style="stop-color:#003B6F"/>
						<stop  offset="1" style="stop-color:#005698"/>
					</linearGradient>
					<path style="fill:url(#SVGID_9_);" d="M122.884,4.014l4.076,44.545L85.701,24.386c0.743-4.551,2.266-8.134,4.866-10.13
						C99.49,6.901,111.244,3.996,122.884,4.014z"/>
					<linearGradient id="SVGID_10_" gradientUnits="userSpaceOnUse" x1="-14.3691" y1="-82.1138" x2="261.3111" y2="213.5171">
						<stop  offset="0" style="stop-color:#151E63"/>
						<stop  offset="1" style="stop-color:#0062A5"/>
					</linearGradient>
					<path style="fill:url(#SVGID_10_);" d="M137.503,58.065l-10.543-9.506l-14.664,27.843c3.716,0.032,7.292,0.658,10.633,1.789
						C126.296,71.36,131.723,64.375,137.503,58.065z"/>
					<linearGradient id="SVGID_11_" gradientUnits="userSpaceOnUse" x1="109.0811" y1="-38.0151" x2="169.4301" y2="97.5309">
						<stop  offset="0" style="stop-color:#00579D"/>
						<stop  offset="1" style="stop-color:#0067B4"/>
					</linearGradient>
					<path style="fill:url(#SVGID_11_);" d="M150.984,9.683L126.96,48.559l-4.076-44.545C132.976,4.03,142.979,6.246,150.984,9.683z
						"/>
					<linearGradient id="SVGID_12_" gradientUnits="userSpaceOnUse" x1="112.2129" y1="11.2861" x2="195.7554" y2="65.5393">
						<stop  offset="0" style="stop-color:#0070BA"/>
						<stop  offset="1" style="stop-color:#004A83"/>
					</linearGradient>
					<path style="fill:url(#SVGID_12_);" d="M146.915,48.559H126.96l24.024-38.876c14.765,6.339,22.722,16.816,11.827,25.26
						C162.812,34.942,155.519,40.454,146.915,48.559z"/>
					<linearGradient id="SVGID_13_" gradientUnits="userSpaceOnUse" x1="128.897" y1="47.9326" x2="242.0512" y2="93.6498">
						<stop  offset="0" style="stop-color:#00528D"/>
						<stop  offset="1" style="stop-color:#004A83"/>
					</linearGradient>
					<path style="fill:url(#SVGID_13_);" d="M146.915,48.559H126.96l10.543,9.506C140.627,54.655,143.854,51.443,146.915,48.559z"/>
				</g>
			</g>
			<g>
				<linearGradient id="SVGID_14_" gradientUnits="userSpaceOnUse" x1="118.4189" y1="181.6367" x2="131.0043" y2="169.0514">
					<stop  offset="0" style="stop-color:#00518F"/>
					<stop  offset="1" style="stop-color:#00447D"/>
				</linearGradient>
				<path style="fill:url(#SVGID_14_);" d="M140.877,92.367c17.318-4.91,58.374-15.011,67.36-3.307
					c25.491,30.929-2.385,95.858-20.687,72.245c0,0-22.352-29.586-43.248-39.882c1.16-3.431,1.79-7.106,1.79-10.93
					C146.093,103.832,144.18,97.618,140.877,92.367z"/>
				<g>
					<linearGradient id="SVGID_15_" gradientUnits="userSpaceOnUse" x1="190.5176" y1="92.2471" x2="238.0622" y2="194.2068">
						<stop  offset="0" style="stop-color:#00487F"/>
						<stop  offset="1" style="stop-color:#00437A"/>
					</linearGradient>
					<path style="fill:url(#SVGID_15_);" d="M218.095,114.109l-22.166-5.71l9.472,53.042
						C213.823,152.465,220.13,132.646,218.095,114.109z"/>
					<linearGradient id="SVGID_16_" gradientUnits="userSpaceOnUse" x1="135.0249" y1="13.6606" x2="223.145" y2="144.304">
						<stop  offset="0" style="stop-color:#00518F"/>
						<stop  offset="1" style="stop-color:#00447D"/>
					</linearGradient>
					<path style="fill:url(#SVGID_16_);" d="M169.016,85.792l26.913,22.607l1.238-24.348
						C189.407,82.993,179.096,84.022,169.016,85.792z"/>
					<linearGradient id="SVGID_17_" gradientUnits="userSpaceOnUse" x1="173.5576" y1="69.1509" x2="283.5305" y2="183.031">
						<stop  offset="0" style="stop-color:#004277"/>
						<stop  offset="1" style="stop-color:#002D5D"/>
					</linearGradient>
					<path style="fill:url(#SVGID_17_);" d="M195.929,108.399l1.238-24.348c4.998,0.683,8.938,2.23,11.07,5.008
						c1.933,2.344,3.553,4.885,4.899,7.566L195.929,108.399z"/>
					<linearGradient id="SVGID_18_" gradientUnits="userSpaceOnUse" x1="129.8369" y1="39.835" x2="297.7711" y2="180.7484">
						<stop  offset="0" style="stop-color:#004377"/>
						<stop  offset="1" style="stop-color:#003060"/>
					</linearGradient>
					<path style="fill:url(#SVGID_18_);" d="M195.929,108.399l22.166,5.71c-0.671-6.113-2.25-12.086-4.958-17.484L195.929,108.399z"
						/>
					<linearGradient id="SVGID_19_" gradientUnits="userSpaceOnUse" x1="-119.0166" y1="-238.6416" x2="275.7744" y2="266.6677">
						<stop  offset="0" style="stop-color:#14266C"/>
						<stop  offset="1" style="stop-color:#003F74"/>
					</linearGradient>
					<path style="fill:url(#SVGID_19_);" d="M154.766,88.753l-8.561,33.658c-0.635-0.346-1.27-0.677-1.902-0.988
						c1.16-3.431,1.79-7.106,1.79-10.93c0-6.661-1.913-12.875-5.216-18.126C144.596,91.312,149.41,90.019,154.766,88.753z"/>
					<linearGradient id="SVGID_20_" gradientUnits="userSpaceOnUse" x1="112.0918" y1="27.9702" x2="222.6539" y2="191.8853">
						<stop  offset="0" style="stop-color:#005FA3"/>
						<stop  offset="1" style="stop-color:#00366B"/>
					</linearGradient>
					<path style="fill:url(#SVGID_20_);" d="M169.016,85.792l26.913,22.607l-30.677,28.356c-5.943-5.523-12.53-10.795-19.047-14.345
						l8.561-33.658C159.245,87.694,164.102,86.656,169.016,85.792z"/>
					<linearGradient id="SVGID_21_" gradientUnits="userSpaceOnUse" x1="102.7046" y1="45.9263" x2="231.9063" y2="175.1281">
						<stop  offset="0" style="stop-color:#005596"/>
						<stop  offset="1" style="stop-color:#003263"/>
					</linearGradient>
					<path style="fill:url(#SVGID_21_);" d="M195.929,108.399l9.472,53.042c-5.626,5.996-12.194,7.159-17.85-0.137
						c0,0-9.703-12.842-22.299-24.549L195.929,108.399z"/>
				</g>
			</g>
			<g>
				<linearGradient id="SVGID_22_" gradientUnits="userSpaceOnUse" x1="117.4478" y1="174.6206" x2="129.2401" y2="162.8282">
					<stop  offset="0" style="stop-color:#00518F"/>
					<stop  offset="1" style="stop-color:#00447D"/>
				</linearGradient>
				<path style="fill:url(#SVGID_22_);" d="M130.127,139.369c4.91,17.318,15.011,58.374,3.307,67.361
					c-30.929,25.491-95.858-2.386-72.245-20.687c0,0,29.585-22.353,39.881-43.249c3.431,1.16,7.107,1.79,10.93,1.79
					C118.662,144.585,124.876,142.673,130.127,139.369z"/>
				<g>
					<linearGradient id="SVGID_23_" gradientUnits="userSpaceOnUse" x1="-23.9395" y1="121.875" x2="79.5713" y2="191.6939">
						<stop  offset="0" style="stop-color:#004B8A"/>
						<stop  offset="1" style="stop-color:#005BA2"/>
					</linearGradient>
					<path style="fill:url(#SVGID_23_);" d="M62.898,184.712l12.335,1.276l-6.639-5.963
						C66.188,182.074,64.205,183.678,62.898,184.712z"/>
					<linearGradient id="SVGID_24_" gradientUnits="userSpaceOnUse" x1="-3.9844" y1="103.7539" x2="112.6134" y2="212.483">
						<stop  offset="0" style="stop-color:#006DB1"/>
						<stop  offset="1" style="stop-color:#002A65"/>
					</linearGradient>
					<path style="fill:url(#SVGID_24_);" d="M75.234,185.988l2.737-14.4c-3.419,3.26-6.664,6.13-9.375,8.438L75.234,185.988z"/>
					<linearGradient id="SVGID_25_" gradientUnits="userSpaceOnUse" x1="1.4009" y1="136.9341" x2="103.3953" y2="225.5964">
						<stop  offset="0" style="stop-color:#004987"/>
						<stop  offset="1" style="stop-color:#00579D"/>
					</linearGradient>
					<path style="fill:url(#SVGID_25_);" d="M62.898,184.712l12.335,1.276l-12.53,19.332c-7.384-5.919-9.438-13.136-1.515-19.276
						C61.189,186.044,61.81,185.574,62.898,184.712z"/>
					<linearGradient id="SVGID_26_" gradientUnits="userSpaceOnUse" x1="43.8765" y1="111.3687" x2="164.7222" y2="236.5079">
						<stop  offset="0" style="stop-color:#0070BA"/>
						<stop  offset="1" style="stop-color:#004A83"/>
					</linearGradient>
					<path style="fill:url(#SVGID_26_);" d="M75.234,185.988l2.737-14.4c8.514-8.114,18.09-18.625,23.1-28.793
						c3.268,1.105,6.758,1.729,10.386,1.785l24.125,19.603L75.234,185.988z"/>
					<linearGradient id="SVGID_27_" gradientUnits="userSpaceOnUse" x1="36.4424" y1="34.0117" x2="204.5932" y2="249.2349">
						<stop  offset="0" style="stop-color:#14266C"/>
						<stop  offset="1" style="stop-color:#003F74"/>
					</linearGradient>
					<path style="fill:url(#SVGID_27_);" d="M135.869,163.051l-0.288,1.132l-24.125-19.603c0.181,0.004,0.362,0.005,0.544,0.005
						c6.662,0,12.875-1.912,18.126-5.216C131.795,145.253,134.062,153.877,135.869,163.051z"/>
					<linearGradient id="SVGID_28_" gradientUnits="userSpaceOnUse" x1="70.1021" y1="66.3262" x2="289.4698" y2="391.5523">
						<stop  offset="0" style="stop-color:#005FA3"/>
						<stop  offset="1" style="stop-color:#00366B"/>
					</linearGradient>
					<polygon style="fill:url(#SVGID_28_);" points="136.013,163.784 135.581,164.183 135.869,163.051 					"/>
					<linearGradient id="SVGID_29_" gradientUnits="userSpaceOnUse" x1="84.4595" y1="112.646" x2="206.2935" y2="234.4801">
						<stop  offset="0" style="stop-color:#005596"/>
						<stop  offset="1" style="stop-color:#003263"/>
					</linearGradient>
					<polygon style="fill:url(#SVGID_29_);" points="136.11,164.293 135.581,164.183 136.013,163.784 					"/>
					<linearGradient id="SVGID_30_" gradientUnits="userSpaceOnUse" x1="17.2456" y1="163.4727" x2="151.8012" y2="247.5523">
						<stop  offset="0" style="stop-color:#005A9F"/>
						<stop  offset="1" style="stop-color:#005BA4"/>
					</linearGradient>
					<path style="fill:url(#SVGID_30_);" d="M62.704,205.32l12.53-19.332l44.657,28.117
						C99.748,220.868,74.462,214.745,62.704,205.32z"/>
					<linearGradient id="SVGID_31_" gradientUnits="userSpaceOnUse" x1="64.5078" y1="135.5894" x2="156.2294" y2="224.1638">
						<stop  offset="0" style="stop-color:#004B8A"/>
						<stop  offset="1" style="stop-color:#005BA2"/>
					</linearGradient>
					<path style="fill:url(#SVGID_31_);" d="M75.234,185.988l60.347-21.806l-4.385,44.245c-3.465,2.458-7.281,4.326-11.306,5.678
						L75.234,185.988z"/>
					<linearGradient id="SVGID_32_" gradientUnits="userSpaceOnUse" x1="76.9331" y1="145.1504" x2="495.6362" y2="449.356">
						<stop  offset="0" style="stop-color:#151E63"/>
						<stop  offset="1" style="stop-color:#0062A5"/>
					</linearGradient>
					<path style="fill:url(#SVGID_32_);" d="M135.581,164.183l0.529,0.11c3.35,17.504,4.872,36.641-2.677,42.438
						c-0.726,0.599-1.476,1.157-2.237,1.697L135.581,164.183z"/>
				</g>
			</g>
			<g>
				<linearGradient id="SVGID_33_" gradientUnits="userSpaceOnUse" x1="92.0039" y1="52.9277" x2="106.5752" y2="38.3564">
					<stop  offset="0" style="stop-color:#00518F"/>
					<stop  offset="1" style="stop-color:#00447D"/>
				</linearGradient>
				<path style="fill:url(#SVGID_33_);" d="M83.124,128.619c-17.319,4.91-58.374,15.012-67.361,3.308
					c-25.491-30.929,2.386-95.859,20.687-72.245c0,0,22.352,29.584,43.249,39.88c-1.161,3.432-1.79,7.107-1.79,10.931
					C77.908,117.154,79.82,123.369,83.124,128.619z"/>
				<g>
					<linearGradient id="SVGID_34_" gradientUnits="userSpaceOnUse" x1="9.1943" y1="35.2676" x2="92.1653" y2="137.7282">
						<stop  offset="0" style="stop-color:#002D59"/>
						<stop  offset="1" style="stop-color:#003B6D"/>
					</linearGradient>
					<path style="fill:url(#SVGID_34_);" d="M26.118,54.81l0.433,10.992l8.409-7.815C32.12,55.12,29.101,54.199,26.118,54.81z"/>
					<linearGradient id="SVGID_35_" gradientUnits="userSpaceOnUse" x1="-13.5938" y1="-37.6797" x2="119.2222" y2="201.9266">
						<stop  offset="0" style="stop-color:#00457E"/>
						<stop  offset="1" style="stop-color:#001A51"/>
					</linearGradient>
					<path style="fill:url(#SVGID_35_);" d="M26.55,65.801l51.861,50.552c-0.331-1.904-0.503-3.861-0.503-5.86
						c0-3.823,0.629-7.499,1.79-10.931C58.802,89.266,36.45,59.682,36.45,59.682c-0.49-0.632-0.988-1.188-1.49-1.696L26.55,65.801z"
						/>
					<linearGradient id="SVGID_36_" gradientUnits="userSpaceOnUse" x1="-54.9717" y1="-11.564" x2="38.7732" y2="72.8443">
						<stop  offset="0" style="stop-color:#00224D"/>
						<stop  offset="1" style="stop-color:#00234C"/>
					</linearGradient>
					<path style="fill:url(#SVGID_36_);" d="M26.118,54.81l0.433,10.992l-8.829-5.273C20.352,57.437,23.216,55.403,26.118,54.81z"/>
					<linearGradient id="SVGID_37_" gradientUnits="userSpaceOnUse" x1="-79.5708" y1="-37.8242" x2="74.2406" y2="145.4812">
						<stop  offset="0" style="stop-color:#001631"/>
						<stop  offset="1" style="stop-color:#003464"/>
					</linearGradient>
					<path style="fill:url(#SVGID_37_);" d="M17.722,60.528l8.829,5.273L6.535,87.636C8.392,76.529,12.61,66.539,17.722,60.528z"/>
					<linearGradient id="SVGID_38_" gradientUnits="userSpaceOnUse" x1="-37.0742" y1="-9.8101" x2="56.4784" y2="166.1369">
						<stop  offset="0" style="stop-color:#00396B"/>
						<stop  offset="1" style="stop-color:#00447A"/>
					</linearGradient>
					<path style="fill:url(#SVGID_38_);" d="M6.535,87.636L26.55,65.801l-5.963,69.568c-2.044-0.836-3.69-1.965-4.825-3.442
						C5.852,119.902,4.011,102.738,6.535,87.636z"/>
					<linearGradient id="SVGID_39_" gradientUnits="userSpaceOnUse" x1="-1.8901" y1="70.7529" x2="81.3457" y2="160.0124">
						<stop  offset="0" style="stop-color:#004B83"/>
						<stop  offset="1" style="stop-color:#002560"/>
					</linearGradient>
					<path style="fill:url(#SVGID_39_);" d="M26.55,65.801l51.861,50.552c0.567,3.275,1.603,6.389,3.034,9.272l-58.087,10.642
						c-0.987-0.251-1.914-0.549-2.771-0.898L26.55,65.801z"/>
					<linearGradient id="SVGID_40_" gradientUnits="userSpaceOnUse" x1="-205.8857" y1="-109.9102" x2="313.0743" y2="374.0277">
						<stop  offset="0" style="stop-color:#006DB1"/>
						<stop  offset="1" style="stop-color:#002A65"/>
					</linearGradient>
					<path style="fill:url(#SVGID_40_);" d="M81.445,125.626l-58.087,10.642c15.337,3.909,45.548-3.617,59.766-7.648
						C82.516,127.653,81.955,126.654,81.445,125.626z"/>
				</g>
			</g>
		</g>
	</g>
</g>
<g id="Master_Layer_3">
</g>
</svg>
