<?xml version="1.0" encoding="iso-8859-1"?>
<!-- Generator: Adobe Illustrator 16.0.0, SVG Export Plug-In . SVG Version: 6.00 Build 0)  -->
<!DOCTYPE svg PUBLIC "-//W3C//DTD SVG 1.1//EN" "http://www.w3.org/Graphics/SVG/1.1/DTD/svg11.dtd">
<svg version="1.1" xmlns="http://www.w3.org/2000/svg" xmlns:xlink="http://www.w3.org/1999/xlink" x="0px" y="0px" width="277px"
	 height="278.451px" viewBox="0 0 277 278.451" style="enable-background:new 0 0 277 278.451;" xml:space="preserve">
<g id="Layer_1">
	<g>
		<g>
			<linearGradient id="SVGID_1_" gradientUnits="userSpaceOnUse" x1="132.1245" y1="145.332" x2="144.8574" y2="132.5992">
				<stop  offset="0" style="stop-color:#00518F"/>
				<stop  offset="1" style="stop-color:#00447D"/>
			</linearGradient>
			<path style="fill:url(#SVGID_1_);" d="M138.5,4.774c37.051,0,70.597,15.019,94.879,39.301s39.301,57.827,39.301,94.88
				c0,37.052-15.019,70.598-39.301,94.88c-24.282,24.281-57.827,39.301-94.879,39.301c-37.053,0-70.598-15.02-94.88-39.301
				c-24.282-24.282-39.301-57.828-39.301-94.88c0-37.053,15.019-70.598,39.301-94.88C67.902,19.793,101.448,4.774,138.5,4.774
				L138.5,4.774z M223.078,54.377C201.433,32.732,171.53,19.346,138.5,19.346c-33.03,0-62.933,13.387-84.578,35.031
				S18.89,105.926,18.89,138.955c0,33.03,13.388,62.933,35.032,84.577c21.645,21.645,51.548,35.032,84.578,35.032
				s62.933-13.388,84.578-35.032c21.644-21.645,35.032-51.547,35.032-84.577C258.11,105.926,244.722,76.021,223.078,54.377z"/>
			<g>
				<linearGradient id="SVGID_2_" gradientUnits="userSpaceOnUse" x1="-23.4756" y1="139.8496" x2="52.3725" y2="244.2454">
					<stop  offset="0" style="stop-color:#00295C"/>
					<stop  offset="1" style="stop-color:#00366E"/>
				</linearGradient>
				<path style="fill:url(#SVGID_2_);" d="M21.267,204.278l6.934,2.565l-2.388,4.979C24.219,209.361,22.701,206.847,21.267,204.278z
					"/>
				<linearGradient id="SVGID_3_" gradientUnits="userSpaceOnUse" x1="34.3647" y1="11.9727" x2="119.7141" y2="117.3703">
					<stop  offset="0" style="stop-color:#002D59"/>
					<stop  offset="1" style="stop-color:#003B6D"/>
				</linearGradient>
				<path style="fill:url(#SVGID_3_);" d="M50.811,37.391l0.764,19.404c0.771-0.816,1.554-1.623,2.348-2.418
					c6.207-6.206,13.094-11.732,20.538-16.46l-17.174-5.78C55.073,33.822,52.914,35.574,50.811,37.391z"/>
				<linearGradient id="SVGID_4_" gradientUnits="userSpaceOnUse" x1="19.5371" y1="-77.0425" x2="124.2783" y2="90.5784">
					<stop  offset="0" style="stop-color:#00254F"/>
					<stop  offset="1" style="stop-color:#004987"/>
				</linearGradient>
				<path style="fill:url(#SVGID_4_);" d="M103.944,9.269l-0.273,15.229c-10.409,3.163-20.217,7.707-29.21,13.419l-17.174-5.78
					C71.007,21.689,86.801,13.824,103.944,9.269z"/>
				<linearGradient id="SVGID_5_" gradientUnits="userSpaceOnUse" x1="91.7432" y1="-48.6304" x2="160.8006" y2="92.9581">
					<stop  offset="0" style="stop-color:#004E9C"/>
					<stop  offset="1" style="stop-color:#00447D"/>
				</linearGradient>
				<path style="fill:url(#SVGID_5_);" d="M141.547,4.811l-13.402,14.979c-8.439,0.723-16.627,2.324-24.475,4.709l0.273-15.229
					c11.026-2.931,22.608-4.494,34.556-4.494C139.519,4.774,140.534,4.787,141.547,4.811z"/>
				<linearGradient id="SVGID_6_" gradientUnits="userSpaceOnUse" x1="219.9736" y1="194.0771" x2="301.7659" y2="288.1684">
					<stop  offset="0" style="stop-color:#003B70"/>
					<stop  offset="1" style="stop-color:#003868"/>
				</linearGradient>
				<path style="fill:url(#SVGID_6_);" d="M249.002,215.09l-13.038-6.785c-0.205,0.288-0.412,0.575-0.62,0.861l3.442,18.935
					C242.45,223.982,245.863,219.638,249.002,215.09z"/>
				<linearGradient id="SVGID_7_" gradientUnits="userSpaceOnUse" x1="191.4248" y1="135.4814" x2="387.5732" y2="283.2899">
					<stop  offset="0" style="stop-color:#003E72"/>
					<stop  offset="1" style="stop-color:#002A5B"/>
				</linearGradient>
				<path style="fill:url(#SVGID_7_);" d="M257.833,147.116l13.438,11.338c-2.498,17.155-8.241,33.259-16.588,47.666l-18.325,1.627
					C248.592,190.373,256.319,169.597,257.833,147.116z"/>
				<linearGradient id="SVGID_8_" gradientUnits="userSpaceOnUse" x1="229.1934" y1="201.4531" x2="343.2919" y2="247.5519">
					<stop  offset="0" style="stop-color:#003B6D"/>
					<stop  offset="1" style="stop-color:#001F4B"/>
				</linearGradient>
				<path style="fill:url(#SVGID_8_);" d="M235.964,208.305l13.038,6.785c2.008-2.909,3.902-5.901,5.681-8.97l-18.325,1.627
					C236.227,207.933,236.096,208.119,235.964,208.305z"/>
				<linearGradient id="SVGID_9_" gradientUnits="userSpaceOnUse" x1="136.4121" y1="3.5898" x2="404.2787" y2="140.0747">
					<stop  offset="0" style="stop-color:#002D5D"/>
					<stop  offset="1" style="stop-color:#003B75"/>
				</linearGradient>
				<path style="fill:url(#SVGID_9_);" d="M235.203,68.548l11.024-9.599c-3.919-5.269-8.214-10.24-12.848-14.874
					c-5.201-5.2-10.828-9.976-16.822-14.27l-25.81,1.526c12.046,5.857,22.962,13.678,32.33,23.045
					C227.474,58.774,231.531,63.512,235.203,68.548z"/>
				<linearGradient id="SVGID_10_" gradientUnits="userSpaceOnUse" x1="110.4141" y1="-29.4858" x2="319.4571" y2="106.2683">
					<stop  offset="0" style="stop-color:#080F22"/>
					<stop  offset="1" style="stop-color:#003571"/>
				</linearGradient>
				<path style="fill:url(#SVGID_10_);" d="M216.557,29.806l-25.81,1.526c-1.941-0.945-3.911-1.838-5.909-2.68l11.599-10.758
					C203.509,21.286,210.238,25.278,216.557,29.806z"/>
				<linearGradient id="SVGID_11_" gradientUnits="userSpaceOnUse" x1="105.9248" y1="-124.6807" x2="226.9231" y2="134.8011">
					<stop  offset="0" style="stop-color:#003A6B"/>
					<stop  offset="1" style="stop-color:#003571"/>
				</linearGradient>
				<path style="fill:url(#SVGID_11_);" d="M152.953,5.547l20.459,18.976c2.867,0.874,5.688,1.852,8.459,2.931l1.744-14.902
					C173.865,9.07,163.595,6.687,152.953,5.547z"/>
				<linearGradient id="SVGID_12_" gradientUnits="userSpaceOnUse" x1="155.0088" y1="-24.3223" x2="271.2554" y2="135.6774">
					<stop  offset="0" style="stop-color:#0072BC"/>
					<stop  offset="1" style="stop-color:#00204B"/>
				</linearGradient>
				<path style="fill:url(#SVGID_12_);" d="M184.838,28.652l11.599-10.758c-4.16-1.994-8.438-3.779-12.822-5.344l-1.744,14.902
					C182.866,27.84,183.856,28.24,184.838,28.652z"/>
				<linearGradient id="SVGID_13_" gradientUnits="userSpaceOnUse" x1="-35.8574" y1="-8.2959" x2="69.298" y2="86.3865">
					<stop  offset="0" style="stop-color:#00224D"/>
					<stop  offset="1" style="stop-color:#00234C"/>
				</linearGradient>
				<path style="fill:url(#SVGID_13_);" d="M50.811,37.391l0.764,19.404c-7.221,7.637-13.446,16.225-18.469,25.557l-12.523-7.479
					c6.186-11.359,13.965-21.725,23.037-30.798C45.935,41.762,48.333,39.531,50.811,37.391z"/>
				<linearGradient id="SVGID_14_" gradientUnits="userSpaceOnUse" x1="251.4541" y1="133.917" x2="322.9875" y2="196.0999">
					<stop  offset="0" style="stop-color:#002B5A"/>
					<stop  offset="1" style="stop-color:#00122C"/>
				</linearGradient>
				<path style="fill:url(#SVGID_14_);" d="M257.833,147.116l13.438,11.338c0.661-4.545,1.096-9.162,1.29-13.842l-14.622,0.764
					C257.908,145.957,257.873,146.536,257.833,147.116z"/>
				<linearGradient id="SVGID_15_" gradientUnits="userSpaceOnUse" x1="205.5259" y1="46.5869" x2="317.2678" y2="162.299">
					<stop  offset="0" style="stop-color:#004277"/>
					<stop  offset="1" style="stop-color:#002D5D"/>
				</linearGradient>
				<path style="fill:url(#SVGID_15_);" d="M244.871,84.206l19.092,7.071c1.743,4.585,3.242,9.289,4.481,14.1l-12.9,8.826
					C253.316,103.622,249.693,93.555,244.871,84.206z"/>
				<linearGradient id="SVGID_16_" gradientUnits="userSpaceOnUse" x1="125.5522" y1="7.708" x2="337.795" y2="185.8007">
					<stop  offset="0" style="stop-color:#004377"/>
					<stop  offset="1" style="stop-color:#003060"/>
				</linearGradient>
				<path style="fill:url(#SVGID_16_);" d="M258.087,141.149l12.653-25.042c-0.623-3.629-1.389-7.208-2.297-10.73l-12.9,8.826
					c1.68,7.986,2.566,16.266,2.566,24.752C258.11,139.688,258.101,140.419,258.087,141.149z"/>
				<linearGradient id="SVGID_17_" gradientUnits="userSpaceOnUse" x1="199.0078" y1="14.1055" x2="291.1902" y2="127.9412">
					<stop  offset="0" style="stop-color:#002F60"/>
					<stop  offset="1" style="stop-color:#001735"/>
				</linearGradient>
				<path style="fill:url(#SVGID_17_);" d="M235.203,68.548l11.024-9.599c7.311,9.828,13.31,20.69,17.735,32.328l-19.092-7.071
					C242.045,78.727,238.809,73.493,235.203,68.548z"/>
				<linearGradient id="SVGID_18_" gradientUnits="userSpaceOnUse" x1="229.2642" y1="105.2568" x2="361.2915" y2="201.1803">
					<stop  offset="0" style="stop-color:#002D5D"/>
					<stop  offset="1" style="stop-color:#001734"/>
				</linearGradient>
				<path style="fill:url(#SVGID_18_);" d="M257.939,145.376l14.622-0.764c0.077-1.877,0.119-3.762,0.119-5.657
					c0-7.789-0.666-15.422-1.939-22.848l-12.653,25.042C258.062,142.565,258.013,143.974,257.939,145.376z"/>
				<linearGradient id="SVGID_19_" gradientUnits="userSpaceOnUse" x1="75.0898" y1="-87.4795" x2="173.9493" y2="70.7286">
					<stop  offset="0" style="stop-color:#003B6F"/>
					<stop  offset="1" style="stop-color:#005698"/>
				</linearGradient>
				<path style="fill:url(#SVGID_19_);" d="M128.146,19.789l13.402-14.979c1.783,0.039,3.56,0.113,5.325,0.223l1.346,14.703
					c-3.206-0.258-6.446-0.391-9.718-0.391C135.012,19.346,131.558,19.496,128.146,19.789z"/>
				<linearGradient id="SVGID_20_" gradientUnits="userSpaceOnUse" x1="117.1016" y1="-76.0518" x2="215.8654" y2="145.7751">
					<stop  offset="0" style="stop-color:#00579D"/>
					<stop  offset="1" style="stop-color:#0067B4"/>
				</linearGradient>
				<path style="fill:url(#SVGID_20_);" d="M152.953,5.547l20.459,18.976c-8.069-2.458-16.5-4.087-25.193-4.786l-1.346-14.703
					C148.912,5.158,150.939,5.331,152.953,5.547z"/>
				<linearGradient id="SVGID_21_" gradientUnits="userSpaceOnUse" x1="-68.2993" y1="75.8223" x2="49.2558" y2="178.0113">
					<stop  offset="0" style="stop-color:#011229"/>
					<stop  offset="1" style="stop-color:#00224D"/>
				</linearGradient>
				<path style="fill:url(#SVGID_21_);" d="M4.756,149.831l9.245-12.97l-9.653-0.608c-0.018,0.899-0.029,1.799-0.029,2.702
					C4.319,142.616,4.468,146.243,4.756,149.831z"/>
				<linearGradient id="SVGID_22_" gradientUnits="userSpaceOnUse" x1="-123.144" y1="-50.1353" x2="43.5822" y2="179.3435">
					<stop  offset="0" style="stop-color:#031125"/>
					<stop  offset="1" style="stop-color:#001837"/>
				</linearGradient>
				<path style="fill:url(#SVGID_22_);" d="M6.127,116.88l7.875,19.981l-9.653-0.608C4.479,129.669,5.081,123.199,6.127,116.88z"/>
				<linearGradient id="SVGID_23_" gradientUnits="userSpaceOnUse" x1="-83.2842" y1="-17.7183" x2="147.1306" y2="256.8795">
					<stop  offset="0" style="stop-color:#001631"/>
					<stop  offset="1" style="stop-color:#003464"/>
				</linearGradient>
				<path style="fill:url(#SVGID_23_);" d="M20.583,74.873l12.523,7.479c-7.924,14.725-12.854,31.301-13.973,48.911l-5.132,5.599
					L6.127,116.88C8.607,101.894,13.572,87.746,20.583,74.873z"/>
				<linearGradient id="SVGID_24_" gradientUnits="userSpaceOnUse" x1="-75.1191" y1="91.5264" x2="95.4874" y2="220.0876">
					<stop  offset="0" style="stop-color:#002853"/>
					<stop  offset="1" style="stop-color:#003B6D"/>
				</linearGradient>
				<path style="fill:url(#SVGID_24_);" d="M4.756,149.831l9.245-12.97l4.91,4.229c0.193,11.023,1.876,21.684,4.859,31.787
					l-13.852,4.551C7.273,168.579,5.519,159.345,4.756,149.831z"/>
				<linearGradient id="SVGID_25_" gradientUnits="userSpaceOnUse" x1="-58.063" y1="140.1602" x2="65.8447" y2="214.6115">
					<stop  offset="0" style="stop-color:#002B59"/>
					<stop  offset="1" style="stop-color:#004277"/>
				</linearGradient>
				<path style="fill:url(#SVGID_25_);" d="M21.267,204.278l6.934,2.565l5.007-11.096c-3.897-7.21-7.075-14.865-9.438-22.87
					l-13.852,4.551C12.734,186.855,16.559,195.847,21.267,204.278z"/>
				<linearGradient id="SVGID_26_" gradientUnits="userSpaceOnUse" x1="-8.1406" y1="87.5928" x2="58.483" y2="212.8936">
					<stop  offset="0" style="stop-color:#00396B"/>
					<stop  offset="1" style="stop-color:#00447A"/>
				</linearGradient>
				<path style="fill:url(#SVGID_26_);" d="M14.001,136.861l5.132-5.599c-0.161,2.543-0.243,5.107-0.243,7.692
					c0,0.714,0.008,1.425,0.021,2.136L14.001,136.861z"/>
				<linearGradient id="SVGID_27_" gradientUnits="userSpaceOnUse" x1="9.5337" y1="187.0156" x2="128.0179" y2="266.9343">
					<stop  offset="0" style="stop-color:#004B8A"/>
					<stop  offset="1" style="stop-color:#005BA2"/>
				</linearGradient>
				<path style="fill:url(#SVGID_27_);" d="M28.201,206.844l12.731,1.317c-2.817-3.966-5.399-8.11-7.725-12.413L28.201,206.844z"/>
				<linearGradient id="SVGID_28_" gradientUnits="userSpaceOnUse" x1="-41.2866" y1="140.4141" x2="95.3436" y2="281.8987">
					<stop  offset="0" style="stop-color:#00356B"/>
					<stop  offset="1" style="stop-color:#004277"/>
				</linearGradient>
				<path style="fill:url(#SVGID_28_);" d="M25.813,211.822l2.388-4.979l17.973,29.476c-0.862-0.817-1.714-1.645-2.554-2.484
					C36.944,227.158,30.97,219.78,25.813,211.822z"/>
				<linearGradient id="SVGID_29_" gradientUnits="userSpaceOnUse" x1="19.1753" y1="201.1328" x2="120.0599" y2="288.8304">
					<stop  offset="0" style="stop-color:#004987"/>
					<stop  offset="1" style="stop-color:#00579D"/>
				</linearGradient>
				<path style="fill:url(#SVGID_29_);" d="M28.201,206.844l12.731,1.317c3.897,5.484,8.245,10.627,12.99,15.371
					c8.316,8.316,17.852,15.411,28.314,20.998l-7.952,12.269c-10.256-5.601-19.699-12.501-28.111-20.479L28.201,206.844z"/>
				<linearGradient id="SVGID_30_" gradientUnits="userSpaceOnUse" x1="118.8618" y1="33.1104" x2="301.2263" y2="362.1045">
					<stop  offset="0" style="stop-color:#00487F"/>
					<stop  offset="1" style="stop-color:#005A9F"/>
				</linearGradient>
				<path style="fill:url(#SVGID_30_);" d="M235.344,209.166l3.442,18.935c-1.746,1.964-3.55,3.876-5.407,5.734
					c-4.666,4.665-9.674,8.986-14.982,12.928l15.062-35.069C234.098,210.859,234.726,210.017,235.344,209.166z"/>
				<linearGradient id="SVGID_31_" gradientUnits="userSpaceOnUse" x1="-25.6006" y1="131.0908" x2="312.532" y2="435.5468">
					<stop  offset="0" style="stop-color:#004987"/>
					<stop  offset="1" style="stop-color:#00579D"/>
				</linearGradient>
				<path style="fill:url(#SVGID_31_);" d="M134.087,273.062l13.807-14.861c-3.1,0.24-6.232,0.364-9.394,0.364
					c-6.296,0-12.478-0.487-18.511-1.425l-30.35,6.82C103.484,269.374,118.447,272.556,134.087,273.062z"/>
				<linearGradient id="SVGID_32_" gradientUnits="userSpaceOnUse" x1="32.3481" y1="216.4844" x2="192.7162" y2="316.6934">
					<stop  offset="0" style="stop-color:#005A9F"/>
					<stop  offset="1" style="stop-color:#005BA4"/>
				</linearGradient>
				<path style="fill:url(#SVGID_32_);" d="M74.285,256.799l7.952-12.269c11.579,6.184,24.295,10.518,37.752,12.609l-30.35,6.82
					C84.35,261.891,79.224,259.495,74.285,256.799z"/>
				<linearGradient id="SVGID_33_" gradientUnits="userSpaceOnUse" x1="6.9248" y1="121.6592" x2="189.7313" y2="310.9606">
					<stop  offset="0" style="stop-color:#0063AE"/>
					<stop  offset="1" style="stop-color:#00366E"/>
				</linearGradient>
				<path style="fill:url(#SVGID_33_);" d="M157.412,271.813l-0.582-14.645c-2.944,0.453-5.925,0.798-8.936,1.032l-13.807,14.861
					c1.465,0.047,2.936,0.074,4.413,0.074C144.919,273.136,151.233,272.684,157.412,271.813z"/>
				<linearGradient id="SVGID_34_" gradientUnits="userSpaceOnUse" x1="140.5723" y1="222.5498" x2="210.4881" y2="343.6475">
					<stop  offset="0" style="stop-color:#0070BA"/>
					<stop  offset="1" style="stop-color:#004A83"/>
				</linearGradient>
				<path style="fill:url(#SVGID_34_);" d="M177.972,267.232l-13.492-11.499c-2.521,0.559-5.072,1.038-7.65,1.435l0.582,14.645
					C164.456,270.818,171.324,269.276,177.972,267.232z"/>
				<linearGradient id="SVGID_35_" gradientUnits="userSpaceOnUse" x1="41.9253" y1="71.0898" x2="347.6741" y2="387.7018">
					<stop  offset="0" style="stop-color:#151E63"/>
					<stop  offset="1" style="stop-color:#0062A5"/>
				</linearGradient>
				<path style="fill:url(#SVGID_35_);" d="M218.397,246.763l15.062-35.069c-3.2,4.172-6.669,8.127-10.381,11.839
					c-15.798,15.798-35.996,27.195-58.598,32.201l13.492,11.499C192.685,262.71,206.32,255.728,218.397,246.763z"/>
			</g>
		</g>
	</g>
</g>
<g id="Master_Layer_3">
</g>
</svg>
