<?xml version="1.0" encoding="iso-8859-1"?>
<!-- Generator: Adobe Illustrator 16.0.0, SVG Export Plug-In . SVG Version: 6.00 Build 0)  -->
<!DOCTYPE svg PUBLIC "-//W3C//DTD SVG 1.1//EN" "http://www.w3.org/Graphics/SVG/1.1/DTD/svg11.dtd">
<svg version="1.1" xmlns="http://www.w3.org/2000/svg" xmlns:xlink="http://www.w3.org/1999/xlink" x="0px" y="0px" width="220px"
	 height="104.085px" viewBox="0 0 220 104.085" style="enable-background:new 0 0 220 104.085;" xml:space="preserve">
<g id="Layer_1">
	<g>
		<g>
			<linearGradient id="SVGID_1_" gradientUnits="userSpaceOnUse" x1="103.2324" y1="39.4106" x2="115.8207" y2="26.8224">
				<stop  offset="0" style="stop-color:#00518F"/>
				<stop  offset="1" style="stop-color:#00447D"/>
			</linearGradient>
			<path style="fill:url(#SVGID_1_);" d="M132.21-1.838l17.784,52.123H69.057L86.842-1.838C94.283-0.623,101.865,0,109.525,0
				C117.187,0,124.769-0.623,132.21-1.838z"/>
			<g>
				<linearGradient id="SVGID_2_" gradientUnits="userSpaceOnUse" x1="-288.3408" y1="-203.6211" x2="410.663" y2="250.3172">
					<stop  offset="0" style="stop-color:#003A7E"/>
					<stop  offset="1" style="stop-color:#0675AB"/>
				</linearGradient>
				<polygon style="fill:url(#SVGID_2_);" points="129.517,50.285 130.571,46.614 69.756,48.235 69.057,50.285 				"/>
				<linearGradient id="SVGID_3_" gradientUnits="userSpaceOnUse" x1="105.834" y1="4.7734" x2="158.3802" y2="99.5692">
					<stop  offset="0" style="stop-color:#005A9F"/>
					<stop  offset="1" style="stop-color:#005BA4"/>
				</linearGradient>
				<polygon style="fill:url(#SVGID_3_);" points="131.916,50.285 130.571,46.614 129.517,50.285 				"/>
				<linearGradient id="SVGID_4_" gradientUnits="userSpaceOnUse" x1="76.127" y1="-25.8379" x2="341.2629" y2="279.166">
					<stop  offset="0" style="stop-color:#004F97"/>
					<stop  offset="1" style="stop-color:#001739"/>
				</linearGradient>
				<polygon style="fill:url(#SVGID_4_);" points="148.257,45.194 130.571,46.614 131.916,50.285 149.994,50.285 				"/>
				<linearGradient id="SVGID_5_" gradientUnits="userSpaceOnUse" x1="102.1279" y1="19.8101" x2="215.3946" y2="85.2045">
					<stop  offset="0" style="stop-color:#14266C"/>
					<stop  offset="1" style="stop-color:#003F74"/>
				</linearGradient>
				<polygon style="fill:url(#SVGID_5_);" points="148.257,45.194 130.571,46.614 144.376,33.819 				"/>
				<linearGradient id="SVGID_6_" gradientUnits="userSpaceOnUse" x1="-27.7598" y1="-93.9995" x2="238.7627" y2="145.9783">
					<stop  offset="0" style="stop-color:#004987"/>
					<stop  offset="1" style="stop-color:#00579D"/>
				</linearGradient>
				<path style="fill:url(#SVGID_6_);" d="M78.391,22.93L99.993-0.322c-4.423-0.3-8.812-0.807-13.151-1.516L78.391,22.93z"/>
				<linearGradient id="SVGID_7_" gradientUnits="userSpaceOnUse" x1="-9.166" y1="-88.7642" x2="156.9197" y2="83.2225">
					<stop  offset="0" style="stop-color:#0063AE"/>
					<stop  offset="1" style="stop-color:#00366E"/>
				</linearGradient>
				<path style="fill:url(#SVGID_7_);" d="M69.756,48.235l60.815-1.621l-1.904-47.92C122.367-0.441,115.975,0,109.525,0
					c-3.192,0-6.371-0.108-9.532-0.322L78.391,22.93L69.756,48.235z"/>
				<linearGradient id="SVGID_8_" gradientUnits="userSpaceOnUse" x1="108.752" y1="-16.8228" x2="182.0605" y2="110.1512">
					<stop  offset="0" style="stop-color:#0070BA"/>
					<stop  offset="1" style="stop-color:#004A83"/>
				</linearGradient>
				<path style="fill:url(#SVGID_8_);" d="M130.571,46.614l13.805-12.795L132.21-1.838c-1.178,0.192-2.358,0.37-3.543,0.532
					L130.571,46.614z"/>
			</g>
		</g>
		<g>
			<linearGradient id="SVGID_9_" gradientUnits="userSpaceOnUse" x1="105.1338" y1="90.0322" x2="113.9295" y2="81.2366">
				<stop  offset="0" style="stop-color:#00518F"/>
				<stop  offset="1" style="stop-color:#00447D"/>
			</linearGradient>
			<path style="fill:url(#SVGID_9_);" d="M45.287,39.519h128.478l37.241,55H8.045L45.287,39.519L45.287,39.519z M96.968,61.19
				c-3.219,0-5.828,2.609-5.828,5.828s2.609,5.828,5.828,5.828h25.116c3.218,0,5.828-2.609,5.828-5.828s-2.61-5.828-5.828-5.828
				H96.968z"/>
			<g>
				<linearGradient id="SVGID_10_" gradientUnits="userSpaceOnUse" x1="120.2324" y1="24.6572" x2="268.5334" y2="158.188">
					<stop  offset="0" style="stop-color:#001940"/>
					<stop  offset="1" style="stop-color:#003874"/>
				</linearGradient>
				<polygon style="fill:url(#SVGID_10_);" points="188.664,61.523 170.334,94.519 211.006,94.519 				"/>
				<linearGradient id="SVGID_11_" gradientUnits="userSpaceOnUse" x1="-61.501" y1="12.8115" x2="56.3556" y2="143.7045">
					<stop  offset="0" style="stop-color:#090917"/>
					<stop  offset="1" style="stop-color:#00122B"/>
				</linearGradient>
				<polygon style="fill:url(#SVGID_11_);" points="11.27,89.756 16.09,94.519 8.045,94.519 				"/>
				<linearGradient id="SVGID_12_" gradientUnits="userSpaceOnUse" x1="30.4238" y1="-12.1099" x2="140.1274" y2="123.3628">
					<stop  offset="0" style="stop-color:#001639"/>
					<stop  offset="1" style="stop-color:#003C7C"/>
				</linearGradient>
				<polygon style="fill:url(#SVGID_12_);" points="116.471,94.519 116.879,94.283 116.892,94.519 				"/>
				<linearGradient id="SVGID_13_" gradientUnits="userSpaceOnUse" x1="89.3613" y1="48.3892" x2="226.3135" y2="276.316">
					<stop  offset="0" style="stop-color:#002A5E"/>
					<stop  offset="1" style="stop-color:#00559E"/>
				</linearGradient>
				<polygon style="fill:url(#SVGID_13_);" points="116.879,94.283 117.266,94.519 116.892,94.519 				"/>
				<linearGradient id="SVGID_14_" gradientUnits="userSpaceOnUse" x1="-35.7197" y1="16.0972" x2="84.7187" y2="110.194">
					<stop  offset="0" style="stop-color:#001837"/>
					<stop  offset="1" style="stop-color:#002754"/>
				</linearGradient>
				<polygon style="fill:url(#SVGID_14_);" points="11.27,89.756 16.09,94.519 29.865,94.519 54.504,48.643 37.025,51.72 				"/>
				<linearGradient id="SVGID_15_" gradientUnits="userSpaceOnUse" x1="-91.7139" y1="-90.5103" x2="93.0748" y2="94.2785">
					<stop  offset="0" style="stop-color:#002858"/>
					<stop  offset="1" style="stop-color:#003D77"/>
				</linearGradient>
				<polygon style="fill:url(#SVGID_15_);" points="51.806,39.519 54.504,48.643 37.025,51.72 45.287,39.519 				"/>
				<linearGradient id="SVGID_16_" gradientUnits="userSpaceOnUse" x1="0.6406" y1="-3.3677" x2="78.863" y2="137.7492">
					<stop  offset="0" style="stop-color:#00193D"/>
					<stop  offset="1" style="stop-color:#002754"/>
				</linearGradient>
				<polygon style="fill:url(#SVGID_16_);" points="62.673,94.519 54.504,48.643 29.865,94.519 				"/>
				<linearGradient id="SVGID_17_" gradientUnits="userSpaceOnUse" x1="-0.4141" y1="-13.0835" x2="175.7109" y2="196.8141">
					<stop  offset="0" style="stop-color:#002A5E"/>
					<stop  offset="1" style="stop-color:#00559E"/>
				</linearGradient>
				<polygon style="fill:url(#SVGID_17_);" points="116.471,94.519 116.879,94.283 54.504,48.643 62.673,94.519 				"/>
				<linearGradient id="SVGID_18_" gradientUnits="userSpaceOnUse" x1="62.9346" y1="30.9707" x2="136.1719" y2="78.5316">
					<stop  offset="0" style="stop-color:#003A7E"/>
					<stop  offset="1" style="stop-color:#0675AB"/>
				</linearGradient>
				<path style="fill:url(#SVGID_18_);" d="M54.504,48.643l62.375,45.641l6.181-21.519c-0.317,0.054-0.644,0.082-0.976,0.082H96.968
					c-3.219,0-5.828-2.609-5.828-5.828s2.609-5.828,5.828-5.828h25.116c1.488,0,2.846,0.559,3.876,1.477l4.611-16.053L54.504,48.643
					z"/>
				<linearGradient id="SVGID_19_" gradientUnits="userSpaceOnUse" x1="103.0605" y1="33.1665" x2="153.1803" y2="123.5849">
					<stop  offset="0" style="stop-color:#005A9F"/>
					<stop  offset="1" style="stop-color:#005BA4"/>
				</linearGradient>
				<path style="fill:url(#SVGID_19_);" d="M116.879,94.283l0.387,0.235h30.848l-17.542-47.904l-4.611,16.053
					c1.197,1.067,1.952,2.621,1.952,4.352c0,2.886-2.099,5.282-4.853,5.746L116.879,94.283z"/>
				<linearGradient id="SVGID_20_" gradientUnits="userSpaceOnUse" x1="115.4414" y1="15.0601" x2="230.2033" y2="147.0785">
					<stop  offset="0" style="stop-color:#004F97"/>
					<stop  offset="1" style="stop-color:#001739"/>
				</linearGradient>
				<polygon style="fill:url(#SVGID_20_);" points="170.334,94.519 188.664,61.523 176.094,42.959 130.571,46.614 148.113,94.519 
									"/>
				<linearGradient id="SVGID_21_" gradientUnits="userSpaceOnUse" x1="-1.0371" y1="-45.3872" x2="320.0191" y2="139.9745">
					<stop  offset="0" style="stop-color:#14266C"/>
					<stop  offset="1" style="stop-color:#003F74"/>
				</linearGradient>
				<polygon style="fill:url(#SVGID_21_);" points="176.094,42.959 130.571,46.614 138.227,39.519 173.765,39.519 				"/>
				<linearGradient id="SVGID_22_" gradientUnits="userSpaceOnUse" x1="1.0322" y1="-7.8818" x2="188.1578" y2="160.6068">
					<stop  offset="0" style="stop-color:#004987"/>
					<stop  offset="1" style="stop-color:#00579D"/>
				</linearGradient>
				<polygon style="fill:url(#SVGID_22_);" points="51.806,39.519 54.504,48.643 62.98,39.519 				"/>
				<linearGradient id="SVGID_23_" gradientUnits="userSpaceOnUse" x1="-361.5874" y1="-426.0332" x2="326.2589" y2="286.2518">
					<stop  offset="0" style="stop-color:#0063AE"/>
					<stop  offset="1" style="stop-color:#00366E"/>
				</linearGradient>
				<polygon style="fill:url(#SVGID_23_);" points="54.504,48.643 130.571,46.614 130.289,39.519 62.98,39.519 				"/>
				<linearGradient id="SVGID_24_" gradientUnits="userSpaceOnUse" x1="111.6299" y1="3.6299" x2="187.6569" y2="135.3125">
					<stop  offset="0" style="stop-color:#0070BA"/>
					<stop  offset="1" style="stop-color:#004A83"/>
				</linearGradient>
				<polygon style="fill:url(#SVGID_24_);" points="130.571,46.614 138.227,39.519 130.289,39.519 				"/>
			</g>
		</g>
	</g>
</g>
<g id="Master_Layer_3">
</g>
</svg>
